<svg width="792" height="212" viewBox="0 0 792 212" fill="none" xmlns="http://www.w3.org/2000/svg">
<g clip-path="url(#clip0_216_1063)">
<path d="M781.499 2C781.499 1.17157 780.827 0.5 779.999 0.5C779.171 0.5 778.499 1.17157 778.499 2H781.499ZM10.9384 211.061C11.5242 211.646 12.474 211.646 13.0598 211.061L22.6057 201.515C23.1915 200.929 23.1915 199.979 22.6057 199.393C22.0199 198.808 21.0702 198.808 20.4844 199.393L11.9991 207.879L3.51379 199.393C2.928 198.808 1.97825 198.808 1.39247 199.393C0.806678 199.979 0.806678 200.929 1.39247 201.515L10.9384 211.061ZM778.499 2V82H781.499V2H778.499ZM755.999 104.5H35.9991V107.5H755.999V104.5ZM10.4991 130V210H13.4991V130H10.4991ZM35.9991 104.5C21.9158 104.5 10.4991 115.917 10.4991 130H13.4991C13.4991 117.574 23.5727 107.5 35.9991 107.5V104.5ZM778.499 82C778.499 94.4264 768.425 104.5 755.999 104.5V107.5C770.082 107.5 781.499 96.0833 781.499 82H778.499Z" fill="#FF6732"/>
<path d="M781.5 2C781.5 1.17157 780.828 0.5 780 0.5C779.172 0.5 778.5 1.17157 778.5 2H781.5ZM778.939 211.061C779.525 211.646 780.475 211.646 781.061 211.061L790.607 201.515C791.192 200.929 791.192 199.979 790.607 199.393C790.021 198.808 789.071 198.808 788.485 199.393L780 207.879L771.515 199.393C770.929 198.808 769.979 198.808 769.393 199.393C768.808 199.979 768.808 200.929 769.393 201.515L778.939 211.061ZM778.5 2V210H781.5V2H778.5Z" fill="#FF6732"/>
<path d="M781.5 2C781.5 1.17157 780.828 0.5 780 0.5C779.172 0.5 778.5 1.17157 778.5 2H781.5ZM395.439 211.061C396.025 211.646 396.975 211.646 397.561 211.061L407.107 201.515C407.692 200.929 407.692 199.979 407.107 199.393C406.521 198.808 405.571 198.808 404.985 199.393L396.5 207.879L388.015 199.393C387.429 198.808 386.479 198.808 385.893 199.393C385.308 199.979 385.308 200.929 385.893 201.515L395.439 211.061ZM778.5 2V82H781.5V2H778.5ZM756 104.5H420.5V107.5H756V104.5ZM395 130V210H398V130H395ZM420.5 104.5C406.417 104.5 395 115.917 395 130H398C398 117.574 408.074 107.5 420.5 107.5V104.5ZM778.5 82C778.5 94.4264 768.426 104.5 756 104.5V107.5C770.083 107.5 781.5 96.0833 781.5 82H778.5Z" fill="#FF6732"/>
</g>
<defs>
<clipPath id="clip0_216_1063">
<rect width="792" height="212" fill="white"/>
</clipPath>
</defs>
</svg>
