<svg width="153" height="139" viewBox="0 0 153 139" fill="none" xmlns="http://www.w3.org/2000/svg">
<g clip-path="url(#clip0_2_1849)">
<path d="M105.867 21.4351H1.4502V41.0133H105.867V21.4351Z" stroke="#FF6732" stroke-width="3" stroke-miterlimit="10"/>
<path d="M99.341 41.0132H7.97607V99.7478H99.341V41.0132Z" stroke="#FF6732" stroke-width="3" stroke-miterlimit="10"/>
<path d="M19.4837 119.325H7.97607V60.5908H125.271C132.24 60.5927 138.923 63.362 143.851 68.2897C148.778 73.2174 151.548 79.9003 151.55 86.8691V119.325H131.884" stroke="#FF6732" stroke-width="3" stroke-miterlimit="10"/>
<path d="M99.4279 119.326H51.9399" stroke="#FF6732" stroke-width="3" stroke-miterlimit="10"/>
<path d="M99.3413 80.1699L124.662 80.3222C124.662 80.3222 138.498 99.7481 151.55 99.7481" stroke="#FF6732" stroke-width="3" stroke-miterlimit="10"/>
<path d="M53.7746 8.38232C57.2055 8.38232 60.4958 9.74523 62.9218 12.1712C65.3478 14.5972 66.7107 17.8876 66.7107 21.3184V99.7472H40.6064V21.5505C40.6064 18.0581 41.9938 14.7087 44.4633 12.2392C46.9328 9.76968 50.2822 8.38232 53.7746 8.38232V8.38232Z" stroke="#FF6732" stroke-width="2" stroke-miterlimit="10"/>
<path d="M40.6062 21.4349H14.502V12.0737C14.502 6.43225 21.9344 1.45068 27.5541 1.45068C36.9154 1.45068 53.7526 8.38282 53.7526 8.38282" stroke="#FF6732" stroke-width="2" stroke-miterlimit="10"/>
<path d="M53.543 8.39007L53.659 8.33931C55.1527 7.73021 70.8298 1.45068 79.7633 1.45068C85.4047 1.45068 92.8154 6.43225 92.8154 12.0737V21.4349H66.7111" stroke="#FF6732" stroke-width="2" stroke-miterlimit="10"/>
<path d="M35.7121 137.272C44.7228 137.272 52.0273 129.968 52.0273 120.957C52.0273 111.947 44.7228 104.642 35.7121 104.642C26.7015 104.642 19.397 111.947 19.397 120.957C19.397 129.968 26.7015 137.272 35.7121 137.272Z" stroke="#FF6732" stroke-width="3" stroke-miterlimit="10"/>
<path d="M35.7121 127.483C39.3163 127.483 42.2382 124.561 42.2382 120.957C42.2382 117.353 39.3163 114.431 35.7121 114.431C32.1079 114.431 29.186 117.353 29.186 120.957C29.186 124.561 32.1079 127.483 35.7121 127.483Z" stroke="#FF6732" stroke-width="2" stroke-miterlimit="10"/>
<path d="M115.656 137.272C124.667 137.272 131.972 129.968 131.972 120.957C131.972 111.947 124.667 104.642 115.656 104.642C106.646 104.642 99.3413 111.947 99.3413 120.957C99.3413 129.968 106.646 137.272 115.656 137.272Z" stroke="#FF6732" stroke-width="3" stroke-miterlimit="10"/>
<path d="M115.656 127.483C119.26 127.483 122.182 124.561 122.182 120.957C122.182 117.353 119.26 114.431 115.656 114.431C112.052 114.431 109.13 117.353 109.13 120.957C109.13 124.561 112.052 127.483 115.656 127.483Z" stroke="#FF6732" stroke-width="2" stroke-miterlimit="10"/>
<path d="M125.272 60.5908L124.663 80.3213" stroke="#FF6732" stroke-width="2.90047" stroke-miterlimit="10"/>
</g>
<defs>
<clipPath id="clip0_2_1849">
<rect width="153" height="138.722" fill="white"/>
</clipPath>
</defs>
</svg>
