<svg width="156" height="157" viewBox="0 0 156 157" fill="none" xmlns="http://www.w3.org/2000/svg">
<g clip-path="url(#clip0_2_1832)">
<path d="M88.1401 41.6525C88.3584 41.8557 88.6385 41.9796 88.9356 42.0045L89.4917 42.0679C90.8292 42.2157 92.1667 42.4058 93.483 42.631H93.7224C93.7879 42.6377 93.854 42.6377 93.9195 42.631H94.0462C94.1065 42.6212 94.1655 42.6046 94.2222 42.5817L94.4193 42.4902L94.6023 42.3706L94.7009 42.272C94.7439 42.235 94.7818 42.1924 94.8135 42.1453C94.8574 42.0894 94.8973 42.0306 94.9332 41.9693C95.0194 41.8296 95.0768 41.674 95.1021 41.5118C95.1334 41.3291 95.1283 41.1422 95.0872 40.9615C95.046 40.7809 94.9697 40.6101 94.8624 40.4591C94.7552 40.308 94.6191 40.1796 94.4622 40.0812C94.3052 39.9828 94.1303 39.9163 93.9476 39.8856L92.9903 39.7308C91.9907 39.5689 90.977 39.4351 89.9633 39.3225L89.2172 39.238C88.9773 39.2093 88.7341 39.2458 88.5132 39.3436L88.1401 41.6525Z" fill="#FF6732"/>
<path d="M54.71 46.8542C54.5678 47.1109 54.3452 47.3138 54.0764 47.4315L53.5555 47.6708C34.6618 56.3152 22.9553 72.8648 22.9553 90.9138C22.9553 102.219 27.3901 112.856 35.7951 121.662C35.8338 121.699 35.8691 121.739 35.9007 121.782C35.9557 121.836 36.0031 121.897 36.0415 121.965C36.0821 122.027 36.1174 122.093 36.1471 122.162C36.1441 122.176 36.1441 122.19 36.1471 122.204C36.1761 122.269 36.1951 122.338 36.2034 122.408C36.2067 122.438 36.2067 122.469 36.2034 122.5C36.2492 122.795 36.1994 123.098 36.0614 123.364C35.9233 123.63 35.7042 123.844 35.4358 123.977C35.1674 124.11 34.8637 124.153 34.5688 124.101C34.2739 124.05 34.0032 123.905 33.7959 123.689C33.6904 123.584 33.5918 123.478 33.4933 123.365C24.8348 114.214 20.0762 102.67 20.0762 90.8927V90.7308C20.0762 89.6678 20.1254 88.619 20.2029 87.549C21.5404 69.7463 33.5214 53.7599 52.1899 45.1507L52.8938 44.841C53.1149 44.7437 53.3573 44.7049 53.5978 44.7283C53.918 45.4623 54.2896 46.1727 54.71 46.8542Z" fill="#FF6732"/>
<path d="M122.661 129.483C122.369 129.481 122.085 129.389 121.848 129.219C121.61 129.049 121.432 128.81 121.337 128.533C121.241 128.257 121.235 127.959 121.317 127.678C121.399 127.398 121.566 127.151 121.795 126.97C130.06 120.508 135.874 112.278 138.69 103.177C138.737 102.992 138.821 102.818 138.937 102.667C139.052 102.515 139.198 102.389 139.364 102.295C139.53 102.202 139.714 102.143 139.903 102.122C140.093 102.102 140.285 102.12 140.467 102.176C140.649 102.232 140.819 102.324 140.964 102.447C141.11 102.571 141.229 102.722 141.314 102.893C141.399 103.063 141.449 103.249 141.46 103.44C141.471 103.63 141.444 103.821 141.379 104C138.43 113.658 132.228 122.366 123.534 129.187C123.285 129.381 122.977 129.485 122.661 129.483Z" fill="#FF6732"/>
<path d="M140.027 79.6506C139.727 79.6505 139.434 79.5541 139.192 79.3754C138.95 79.1968 138.772 78.9454 138.683 78.6581C135.248 67.4514 127.145 57.5399 115.854 50.7962C115.696 50.701 115.557 50.5754 115.447 50.4268C115.337 50.2782 115.258 50.1093 115.213 49.9299C115.168 49.7504 115.159 49.564 115.186 49.381C115.214 49.1981 115.277 49.0224 115.372 48.8639C115.467 48.7053 115.593 48.5671 115.741 48.4571C115.89 48.347 116.059 48.2673 116.238 48.2226C116.418 48.1778 116.604 48.1688 116.787 48.1961C116.97 48.2234 117.146 48.2864 117.304 48.3817C129.194 55.4985 137.718 65.9801 141.372 77.8345C141.426 78.0115 141.445 78.1975 141.427 78.3818C141.41 78.5661 141.356 78.7452 141.269 78.9086C141.182 79.0721 141.064 79.2168 140.921 79.3345C140.778 79.4521 140.613 79.5404 140.436 79.5943C140.303 79.6338 140.166 79.6527 140.027 79.6506Z" fill="#FF6732"/>
<path d="M97.5729 130.334H59.5602C59.1868 130.334 58.8287 130.186 58.5647 129.922C58.3007 129.658 58.1523 129.3 58.1523 128.927C58.1523 128.553 58.3007 128.195 58.5647 127.931C58.8287 127.667 59.1868 127.519 59.5602 127.519H97.4251C97.8634 127.457 98.306 127.431 98.7485 127.441C99.1219 127.441 99.48 127.59 99.744 127.854C100.008 128.118 100.156 128.476 100.156 128.849C100.156 129.222 100.008 129.581 99.744 129.845C99.48 130.109 99.1219 130.257 98.7485 130.257C98.4665 130.25 98.1843 130.262 97.9038 130.292C97.7965 130.324 97.6848 130.338 97.5729 130.334Z" fill="#FF6732"/>
<path d="M150.587 104.993H140.028C139.654 104.993 139.296 104.844 139.032 104.58C138.768 104.316 138.62 103.958 138.62 103.585C138.62 103.211 138.768 102.853 139.032 102.589C139.296 102.325 139.654 102.177 140.028 102.177H150.587C151.276 102.177 151.936 101.903 152.423 101.416C152.91 100.929 153.184 100.268 153.184 99.5792V82.2483C153.182 81.5599 152.908 80.9003 152.421 80.4136C151.935 79.9268 151.275 79.6526 150.587 79.6507H140.028C139.654 79.6507 139.296 79.5024 139.032 79.2384C138.768 78.9743 138.62 78.6162 138.62 78.2428C138.62 77.8694 138.768 77.5113 139.032 77.2473C139.296 76.9833 139.654 76.835 140.028 76.835H150.587C152.022 76.8368 153.398 77.4077 154.412 78.4225C155.427 79.4373 155.998 80.8131 156 82.2483V99.5792C155.998 101.014 155.427 102.39 154.412 103.405C153.398 104.42 152.022 104.991 150.587 104.993Z" fill="#FF6732"/>
<path d="M116.579 50.9935C116.206 50.9935 115.848 50.8452 115.584 50.5812C115.32 50.3171 115.171 49.959 115.171 49.5856V29.8753C115.171 29.3263 114.538 29.1221 114.115 29.1151C104.31 29.0095 98.2979 36.0278 94.9472 41.9197C94.7605 42.2446 94.4524 42.482 94.0906 42.5797C93.7289 42.6773 93.3432 42.6273 93.0184 42.4406C92.6935 42.254 92.4561 41.9459 92.3584 41.5841C92.2607 41.2224 92.3107 40.8367 92.4974 40.5119C95.5455 35.1478 102.423 26.1937 114.144 26.2782C114.632 26.2546 115.121 26.329 115.58 26.497C116.039 26.6649 116.461 26.9231 116.819 27.2564C117.177 27.5896 117.465 27.9911 117.665 28.4372C117.866 28.8834 117.975 29.3652 117.987 29.8542V49.5645C117.99 49.7512 117.956 49.9365 117.886 50.1098C117.817 50.283 117.713 50.4407 117.582 50.5737C117.451 50.7067 117.295 50.8123 117.123 50.8844C116.951 50.9564 116.766 50.9935 116.579 50.9935Z" fill="#FF6732"/>
<path d="M50.0572 155.677C46.3685 155.677 41.1946 152.931 39.2658 148.496C37.8579 145.308 34.8451 131.94 33.4865 122.943C33.4305 122.57 33.5251 122.19 33.7495 121.886C33.9739 121.582 34.3098 121.38 34.6832 121.324C35.0565 121.268 35.4369 121.363 35.7405 121.587C36.0442 121.812 36.2462 122.148 36.3022 122.521C37.6045 131.165 40.5751 144.407 41.8704 147.37C42.6421 148.922 43.8062 150.245 45.2472 151.209C46.6883 152.172 48.3562 152.741 50.0854 152.861C51.8145 152.741 53.4824 152.172 54.9235 151.209C56.3645 150.245 57.5286 148.922 58.3003 147.37C58.786 145.962 58.427 135.966 58.3003 131.693C58.3003 130.602 58.2299 129.666 58.2088 128.969C58.1985 128.596 58.337 128.234 58.5938 127.962C58.8506 127.691 59.2046 127.533 59.578 127.523C59.9514 127.512 60.3135 127.651 60.5848 127.908C60.8561 128.164 61.0143 128.518 61.0246 128.892C61.0246 129.596 61.0738 130.511 61.1161 131.588C61.4751 141.661 61.5455 147.039 60.9049 148.482C58.9127 152.931 53.7388 155.677 50.0572 155.677Z" fill="#FF6732"/>
<path d="M112.983 156.19C109.576 156.19 105.38 154.649 102.994 151.523C101.072 149.003 99.7345 142.21 98.1858 133.594C97.8972 131.989 97.6297 130.468 97.3622 129.124C97.3266 128.942 97.3272 128.755 97.3638 128.574C97.4004 128.392 97.4725 128.22 97.5757 128.066C97.679 127.913 97.8115 127.781 97.9657 127.678C98.1199 127.576 98.2928 127.505 98.4745 127.469C98.6561 127.434 98.843 127.434 99.0244 127.471C99.2059 127.508 99.3783 127.58 99.5319 127.683C99.6856 127.786 99.8173 127.919 99.9197 128.073C100.022 128.227 100.093 128.4 100.129 128.582C100.396 129.94 100.671 131.475 100.959 133.094C102.065 139.232 103.571 147.637 105.232 149.812C107.407 152.663 111.779 153.874 114.51 153.212C117.241 152.551 120.585 149.418 121.198 145.948C121.578 143.759 121.606 135.938 121.254 128.138C121.237 127.765 121.369 127.4 121.621 127.124C121.874 126.848 122.225 126.684 122.598 126.667C122.972 126.65 123.337 126.782 123.613 127.035C123.888 127.287 124.053 127.638 124.07 128.011C124.386 135.051 124.457 143.674 123.971 146.434C123.133 151.192 118.755 155.078 115.172 155.951C114.454 156.117 113.719 156.197 112.983 156.19Z" fill="#FF6732"/>
<path d="M91.238 60.6449H53.2253C52.8519 60.6449 52.4938 60.4965 52.2297 60.2325C51.9657 59.9685 51.8174 59.6104 51.8174 59.237C51.8174 58.8636 51.9657 58.5055 52.2297 58.2415C52.4938 57.9774 52.8519 57.8291 53.2253 57.8291H91.238C91.6114 57.8291 91.9695 57.9774 92.2335 58.2415C92.4975 58.5055 92.6459 58.8636 92.6459 59.237C92.6459 59.6104 92.4975 59.9685 92.2335 60.2325C91.9695 60.4965 91.6114 60.6449 91.238 60.6449Z" fill="#FF6732"/>
<path d="M32.0151 13.544C31.1404 12.8546 30.0438 12.5091 28.9319 12.5725H25.8768V20.0061H28.9037C30.0214 20.0729 31.125 19.73 32.0081 19.0417C32.3914 18.6948 32.6935 18.2677 32.8931 17.7908C33.0926 17.3138 33.1846 16.7988 33.1626 16.2823C33.1853 15.7695 33.0942 15.258 32.8958 14.7845C32.6974 14.3111 32.3967 13.8874 32.0151 13.544ZM31.0859 17.9788C30.4543 18.436 29.6814 18.6554 28.9037 18.5983H27.2847V13.9804H28.9319C29.7008 13.9239 30.4646 14.1436 31.0859 14.5999C31.3215 14.8099 31.5071 15.07 31.6289 15.3612C31.7507 15.6523 31.8057 15.9671 31.7899 16.2823C31.8079 16.5998 31.7539 16.9173 31.632 17.2111C31.5101 17.5048 31.3235 17.7673 31.0859 17.9788ZM32.0151 13.544C31.1404 12.8546 30.0438 12.5091 28.9319 12.5725H25.8768V20.0061H28.9037C30.0214 20.0729 31.125 19.73 32.0081 19.0417C32.3914 18.6948 32.6935 18.2677 32.8931 17.7908C33.0926 17.3138 33.1846 16.7988 33.1626 16.2823C33.1853 15.7695 33.0942 15.258 32.8958 14.7845C32.6974 14.3111 32.3967 13.8874 32.0151 13.544ZM31.0859 17.9788C30.4543 18.436 29.6814 18.6554 28.9037 18.5983H27.2847V13.9804H28.9319C29.7008 13.9239 30.4646 14.1436 31.0859 14.5999C31.3215 14.8099 31.5071 15.07 31.6289 15.3612C31.7507 15.6523 31.8057 15.9671 31.7899 16.2823C31.8079 16.5998 31.7539 16.9173 31.632 17.2111C31.5101 17.5048 31.3235 17.7673 31.0859 17.9788ZM29.9244 23.0824C31.8646 23.1572 33.7569 22.4699 35.197 21.1676C35.8731 20.5411 36.4075 19.7774 36.7644 18.9276C37.1213 18.0777 37.2925 17.1614 37.2665 16.2401C37.2923 15.3264 37.1294 14.4171 36.7878 13.5693C36.4462 12.7214 35.9334 11.9531 35.2814 11.3125C34.5968 10.667 33.7903 10.1646 32.9092 9.83458C32.028 9.5046 31.0899 9.35371 30.1497 9.39073H21.8221V18.6546H19.4287V23.012H21.8221V23.5822H19.4287V27.4538H21.8221V30.0302H27.2636V27.4538H32.4868V23.5822H27.2847V23.0824H29.9244ZM31.1 24.99V26.0459H25.8768V28.6224H23.23V26.0459H20.8366V24.99H23.23V21.6041H20.8366V20.0625H23.23V10.7775H30.1145C30.8733 10.74 31.632 10.8552 32.3454 11.1164C33.0588 11.3776 33.7125 11.7794 34.2678 12.298C34.7897 12.8102 35.198 13.4265 35.4661 14.1069C35.7341 14.7873 35.8559 15.5165 35.8235 16.2471C35.8502 16.9743 35.7193 17.6987 35.4399 18.3706C35.1604 19.0426 34.7389 19.6461 34.2044 20.1399C33.028 21.1966 31.4829 21.7478 29.9033 21.6745H25.8768V24.99H31.1ZM32.0081 19.0417C32.3914 18.6948 32.6935 18.2677 32.8931 17.7908C33.0926 17.3138 33.1846 16.7988 33.1626 16.2823C33.1853 15.7695 33.0942 15.258 32.8958 14.7845C32.6974 14.3111 32.3967 13.8874 32.0151 13.544C31.1404 12.8546 30.0438 12.5091 28.9319 12.5725H25.8768V20.0061H28.9037C30.0214 20.0729 31.125 19.73 32.0081 19.0417ZM27.2847 13.9804H28.9319C29.7008 13.9239 30.4646 14.1436 31.0859 14.5999C31.3215 14.8099 31.5071 15.07 31.6289 15.3612C31.7507 15.6523 31.8057 15.9671 31.7899 16.2823C31.8079 16.5998 31.7539 16.9173 31.632 17.2111C31.5101 17.5048 31.3235 17.7673 31.0859 17.9788C30.4543 18.436 29.6814 18.6554 28.9037 18.5983H27.2847V13.9804Z" fill="#FF6732"/>
<path d="M28.3407 0C24.4424 0 20.6316 1.15599 17.3902 3.32179C14.1489 5.48758 11.6226 8.56591 10.1307 12.1675C8.63891 15.7691 8.24858 19.7322 9.00911 23.5556C9.76963 27.379 11.6469 30.8911 14.4034 33.6476C17.1599 36.4041 20.672 38.2813 24.4954 39.0419C28.3188 39.8024 32.2819 39.4121 35.8835 37.9202C39.4851 36.4284 42.5634 33.9021 44.7292 30.6608C46.895 27.4194 48.051 23.6086 48.051 19.7103C48.051 14.4828 45.9744 9.46941 42.278 5.77301C38.5816 2.07662 33.5682 0 28.3407 0V0ZM28.3407 38.0127C24.7208 38.0127 21.1822 36.9393 18.1724 34.9282C15.1626 32.9171 12.8167 30.0587 11.4314 26.7143C10.0462 23.37 9.68373 19.69 10.3899 16.1397C11.0961 12.5894 12.8393 9.32817 15.3989 6.76853C17.9586 4.20889 21.2197 2.46576 24.7701 1.75955C28.3204 1.05335 32.0004 1.4158 35.3447 2.80107C38.689 4.18634 41.5475 6.5322 43.5586 9.54202C45.5697 12.5518 46.6431 16.0904 46.6431 19.7103C46.6431 24.5644 44.7148 29.2197 41.2824 32.6521C37.8501 36.0844 33.1948 38.0127 28.3407 38.0127Z" fill="#FF6732"/>
<path d="M74.0334 31.1993C73.16 30.5076 72.0624 30.1618 70.9502 30.2279H67.8951V37.6615H70.922C72.0373 37.7271 73.1384 37.3843 74.0193 36.6971C74.3848 36.3386 74.6751 35.9109 74.8733 35.4389C75.0714 34.9669 75.1735 34.4601 75.1735 33.9482C75.1735 33.4363 75.0714 32.9295 74.8733 32.4575C74.6751 31.9855 74.3848 31.5578 74.0193 31.1993H74.0334ZM73.0972 35.6342C72.4687 36.0925 71.6976 36.3121 70.922 36.2536H69.3029V31.6358H70.9502C71.719 31.5793 72.4828 31.7989 73.1042 32.2552C73.5364 32.7116 73.7773 33.3162 73.7773 33.9447C73.7773 34.5732 73.5364 35.1778 73.1042 35.6342H73.0972ZM74.0334 31.1993C73.16 30.5076 72.0624 30.1618 70.9502 30.2279H67.8951V37.6615H70.922C72.0373 37.7271 73.1384 37.3843 74.0193 36.6971C74.3848 36.3386 74.6751 35.9109 74.8733 35.4389C75.0714 34.9669 75.1735 34.4601 75.1735 33.9482C75.1735 33.4363 75.0714 32.9295 74.8733 32.4575C74.6751 31.9855 74.3848 31.5578 74.0193 31.1993H74.0334ZM73.0972 35.6342C72.4687 36.0925 71.6976 36.3121 70.922 36.2536H69.3029V31.6358H70.9502C71.719 31.5793 72.4828 31.7989 73.1042 32.2552C73.5364 32.7116 73.7773 33.3162 73.7773 33.9447C73.7773 34.5732 73.5364 35.1778 73.1042 35.6342H73.0972ZM71.9357 40.7307C73.8724 40.8055 75.7618 40.121 77.2011 38.823C77.8769 38.1962 78.411 37.4324 78.7679 36.5827C79.1248 35.7329 79.2963 34.8167 79.2707 33.8954C79.2974 32.9816 79.1348 32.0721 78.7932 31.2242C78.4516 30.3762 77.9383 29.608 77.2856 28.9678C76.6022 28.3207 75.7959 27.8172 74.9144 27.4871C74.033 27.157 73.0943 27.0071 72.1539 27.0461H63.8615V36.3099H61.4399V40.6673H63.8615V41.2375H61.4399V45.1303H63.8615V47.7067H69.3029V45.1303H74.5262V41.2375H69.3029V40.7307H71.9357ZM73.1183 42.6454V43.7224H67.8951V46.2988H65.2694V43.7224H62.8478V42.6454H65.2694V39.2594H62.8478V37.7178H65.2694V28.4329H72.1539C72.9118 28.3938 73.6698 28.5084 74.3823 28.7697C75.0948 29.031 75.7471 29.4336 76.3001 29.9534C76.8224 30.4641 77.2315 31.079 77.5008 31.7582C77.77 32.4373 77.8934 33.1655 77.8628 33.8954C77.8888 34.6242 77.7569 35.35 77.4762 36.0231C77.1955 36.6962 76.7727 37.3007 76.2367 37.7952C75.0608 38.8521 73.5148 39.4011 71.9357 39.3228H67.8951V42.6454H73.1183ZM74.0193 36.6971C74.3848 36.3386 74.6751 35.9109 74.8733 35.4389C75.0714 34.9669 75.1735 34.4601 75.1735 33.9482C75.1735 33.4363 75.0714 32.9295 74.8733 32.4575C74.6751 31.9855 74.3848 31.5578 74.0193 31.1993C73.1459 30.5076 72.0483 30.1618 70.9361 30.2279H67.8951V37.6615H70.922C72.0373 37.7271 73.1384 37.3843 74.0193 36.6971ZM69.3029 31.6358H70.9502C71.719 31.5793 72.4828 31.7989 73.1042 32.2552C73.5364 32.7116 73.7773 33.3162 73.7773 33.9447C73.7773 34.5732 73.5364 35.1778 73.1042 35.6342C72.4758 36.0925 71.7047 36.3121 70.929 36.2536H69.31L69.3029 31.6358Z" fill="#FF6732"/>
<path d="M70.3518 17.6553C67.0862 17.6553 63.8718 18.4667 60.9974 20.0166C58.123 21.5664 55.6787 23.8062 53.8842 26.5346C52.0897 29.2629 51.0013 32.3944 50.7166 35.6476C50.432 38.9008 50.9601 42.1737 52.2535 45.1723C52.6256 46.0362 53.0608 46.8714 53.5558 47.6712C55.5919 50.9838 58.5623 53.6202 62.0932 55.2486C65.6241 56.8769 69.5578 57.4246 73.3992 56.8226C77.2406 56.2206 80.8182 54.4959 83.6817 51.8654C86.5452 49.235 88.5667 45.8164 89.4919 42.0397C89.7203 41.1261 89.8803 40.1966 89.9706 39.2592C90.0339 38.6256 90.0621 37.985 90.0621 37.3374C90.0546 32.1148 87.9747 27.1086 84.2791 23.4183C80.5836 19.728 75.5744 17.6553 70.3518 17.6553ZM70.3518 55.668C67.2071 55.6665 64.1159 54.8547 61.3761 53.311C58.6364 51.7673 56.3407 49.5437 54.7103 46.8547C54.2977 46.1771 53.9331 45.4714 53.6192 44.7429C52.5796 42.4201 52.0446 39.9033 52.0494 37.3585C52.0494 34.955 52.5228 32.5751 53.4426 30.3545C54.3623 28.1339 55.7105 26.1163 57.41 24.4168C59.1096 22.7172 61.1272 21.3691 63.3478 20.4493C65.5683 19.5295 67.9483 19.0561 70.3518 19.0561C72.7553 19.0561 75.1353 19.5295 77.3558 20.4493C79.5764 21.3691 81.594 22.7172 83.2936 24.4168C84.9931 26.1163 86.3413 28.1339 87.261 30.3545C88.1808 32.5751 88.6542 34.955 88.6542 37.3585C88.6542 38.0132 88.6542 38.6608 88.5557 39.3014C88.5557 39.3014 88.5557 39.3436 88.5557 39.3648C88.4723 40.133 88.3382 40.8949 88.1544 41.6455C87.1931 45.6426 84.914 49.1997 81.6844 51.7435C78.4548 54.2873 74.4629 55.6697 70.3518 55.668Z" fill="#FF6732"/>
<path d="M10.2634 99.3335C11.087 101.333 10.3408 103.599 8.15157 104.261C7.65658 104.393 7.1387 104.416 6.63412 104.327C6.12954 104.238 5.65042 104.04 5.23023 103.747C4.83207 103.532 4.48699 103.231 4.22025 102.866C3.95351 102.5 3.77186 102.08 3.6886 101.635C3.30142 99.7857 3.61766 97.8581 4.57556 96.2291C5.62041 94.3418 7.35249 92.93 9.41162 92.287C12.6354 91.1903 16.0329 90.6941 19.4357 90.8228C21.7024 90.9003 21.7024 87.3806 19.4357 87.3031C15.5555 87.151 11.6821 87.7436 8.02486 89.0489C6.55017 89.5552 5.18984 90.3474 4.02177 91.3802C2.8537 92.4129 1.90084 93.666 1.21777 95.0676C-0.0141226 97.6792 -0.471683 100.769 0.612383 103.515C1.30336 105.091 2.53257 106.37 4.08016 107.123C5.62776 107.877 7.39281 108.055 9.05966 107.626C9.99012 107.35 10.8534 106.884 11.5953 106.258C12.3372 105.632 12.9416 104.86 13.3707 103.989C13.7997 103.119 14.0441 102.169 14.0884 101.199C14.1327 100.229 13.976 99.2611 13.6282 98.355C13.4883 97.9231 13.1918 97.5593 12.797 97.3352C12.4022 97.1111 11.9378 97.0429 11.4953 97.1442C11.046 97.2708 10.6647 97.5694 10.4341 97.9753C10.2035 98.3811 10.1422 98.8616 10.2634 99.3123V99.3335Z" fill="#FF6732"/>
<path d="M122.915 79.6507C122.541 79.6507 122.183 79.5024 121.919 79.2384C121.655 78.9743 121.507 78.6162 121.507 78.2428V71.9074C121.507 71.534 121.655 71.1759 121.919 70.9119C122.183 70.6478 122.541 70.4995 122.915 70.4995C123.288 70.4995 123.646 70.6478 123.91 70.9119C124.174 71.1759 124.323 71.534 124.323 71.9074V78.2428C124.323 78.6162 124.174 78.9743 123.91 79.2384C123.646 79.5024 123.288 79.6507 122.915 79.6507Z" fill="#FF6732"/>
</g>
<defs>
<clipPath id="clip0_2_1832">
<rect width="156" height="156.19" fill="white"/>
</clipPath>
</defs>
</svg>
