<svg width="131" height="139" viewBox="0 0 131 139" fill="none" xmlns="http://www.w3.org/2000/svg">
<g clip-path="url(#clip0_2_1881)">
<path d="M59.0127 56.4966H106.774C108.916 56.4966 110.97 57.3469 112.484 58.8605C113.998 60.3741 114.849 62.427 114.849 64.5675C114.849 66.7081 113.998 68.761 112.484 70.2746C110.97 71.7882 108.916 72.6385 106.774 72.6385H9.86978C7.72806 72.6385 5.67407 71.7882 4.15965 70.2746C2.64523 68.761 1.79443 66.7081 1.79443 64.5675C1.79443 62.427 2.64523 60.3741 4.15965 58.8605C5.67407 57.3469 7.72806 56.4966 9.86978 56.4966H42.862" stroke="#FF6732" stroke-width="3" stroke-miterlimit="10"/>
<path d="M108.883 119.163C108.883 119.163 105.671 101.273 104.746 96.8516C104.082 93.7129 104.746 83.9201 104.746 80.7096V72.6387H11.8979V80.7096C11.8979 83.9201 12.5619 93.7129 11.8979 96.8516C11.0006 101.273 7.76151 119.163 7.76151 119.163C6.03877 128.499 12.6516 137.206 21.4806 137.206H95.1636C103.993 137.206 110.605 128.499 108.883 119.163Z" stroke="#FF6732" stroke-width="3" stroke-miterlimit="10"/>
<path d="M59.0126 56.4968H42.8619C42.218 54.6706 42.0215 52.7168 42.2887 50.7991C42.556 48.8813 43.2792 47.0555 44.3978 45.4747C45.5164 43.8938 46.9979 42.604 48.718 41.7132C50.4381 40.8224 52.3467 40.3566 54.284 40.3549C54.6128 40.3368 54.9423 40.3368 55.271 40.3549C55.8761 40.3957 56.4765 40.4887 57.0655 40.6329C58.7266 41.0221 60.2868 41.7577 61.6437 42.7914C63.0006 43.8251 64.1237 45.1337 64.9395 46.6314C65.7552 48.1291 66.2452 49.7821 66.3773 51.4822C66.5095 53.1824 66.2807 54.8912 65.7062 56.4968" stroke="#FF6732" stroke-width="3" stroke-miterlimit="10"/>
<path d="M62.3594 43.4308C64.3665 41.6444 66.9106 40.5754 69.5919 40.3917C72.2732 40.208 74.9395 40.92 77.1717 42.4159C79.4039 43.9118 81.0755 46.1067 81.9235 48.6556C82.7716 51.2044 82.7482 53.9627 81.8568 56.4968H65.7062" stroke="#FF6732" stroke-width="3" stroke-miterlimit="10"/>
<path d="M36.7877 30.0062C35.6744 29.125 34.2754 28.6845 32.8577 28.7686H28.9456V38.2386H32.8039C34.2376 38.3311 35.6554 37.8939 36.7877 37.01C37.2814 36.5717 37.6706 36.0284 37.9267 35.4201C38.1829 34.8118 38.2996 34.1539 38.2682 33.4946C38.2949 32.8399 38.176 32.1875 37.92 31.5842C37.664 30.981 37.2772 30.442 36.7877 30.0062ZM35.5943 35.6559C34.7933 36.2398 33.8105 36.5196 32.8218 36.445H30.7581V30.5622H32.8398C33.8198 30.4902 34.7933 30.77 35.5854 31.3514C35.8857 31.6189 36.1222 31.9503 36.2774 32.3212C36.4327 32.6921 36.5028 33.0931 36.4826 33.4946C36.5045 33.8999 36.4343 34.3048 36.2773 34.6791C36.1204 35.0533 35.8808 35.3873 35.5764 35.6559H35.5943ZM36.7877 30.0062C35.6744 29.125 34.2754 28.6845 32.8577 28.7686H28.9456V38.2386H32.8039C34.2376 38.3311 35.6554 37.8939 36.7877 37.01C37.2814 36.5717 37.6706 36.0284 37.9267 35.4201C38.1829 34.8118 38.2996 34.1539 38.2682 33.4946C38.2949 32.8399 38.176 32.1875 37.92 31.5842C37.664 30.981 37.2772 30.442 36.7877 30.0062ZM35.5943 35.6559C34.7933 36.2398 33.8105 36.5196 32.8218 36.445H30.7581V30.5622H32.8398C33.8198 30.4902 34.7933 30.77 35.5854 31.3514C35.8857 31.6189 36.1222 31.9503 36.2774 32.3212C36.4327 32.6921 36.5028 33.0931 36.4826 33.4946C36.5045 33.8999 36.4343 34.3048 36.2773 34.6791C36.1204 35.0533 35.8808 35.3873 35.5764 35.6559H35.5943ZM36.7877 30.0062C35.6744 29.125 34.2754 28.6845 32.8577 28.7686H28.9456V38.2386H32.8039C34.2376 38.3311 35.6554 37.8939 36.7877 37.01C37.2814 36.5717 37.6706 36.0284 37.9267 35.4201C38.1829 34.8118 38.2996 34.1539 38.2682 33.4946C38.2949 32.8399 38.176 32.1875 37.92 31.5842C37.664 30.981 37.2772 30.442 36.7877 30.0062ZM35.5943 35.6559C34.7933 36.2398 33.8105 36.5196 32.8218 36.445H30.7581V30.5622H32.8398C33.8198 30.4902 34.7933 30.77 35.5854 31.3514C35.8857 31.6189 36.1222 31.9503 36.2774 32.3212C36.4327 32.6921 36.5028 33.0931 36.4826 33.4946C36.5045 33.8999 36.4343 34.3048 36.2773 34.6791C36.1204 35.0533 35.8808 35.3873 35.5764 35.6559H35.5943ZM36.7877 30.0062C35.6744 29.125 34.2754 28.6845 32.8577 28.7686H28.9456V38.2386H32.8039C34.2376 38.3311 35.6554 37.8939 36.7877 37.01C37.2814 36.5717 37.6706 36.0284 37.9267 35.4201C38.1829 34.8118 38.2996 34.1539 38.2682 33.4946C38.2949 32.8399 38.176 32.1875 37.92 31.5842C37.664 30.981 37.2772 30.442 36.7877 30.0062ZM35.5943 35.6559C34.7933 36.2398 33.8105 36.5196 32.8218 36.445H30.7581V30.5622H32.8398C33.8198 30.4902 34.7933 30.77 35.5854 31.3514C35.8857 31.6189 36.1222 31.9503 36.2774 32.3212C36.4327 32.6921 36.5028 33.0931 36.4826 33.4946C36.5045 33.8999 36.4343 34.3048 36.2773 34.6791C36.1204 35.0533 35.8808 35.3873 35.5764 35.6559H35.5943ZM34.0959 42.1485C36.5645 42.2439 38.9728 41.3719 40.8074 39.7183C41.6687 38.9198 42.3496 37.9468 42.8045 36.8642C43.2594 35.7817 43.4779 34.6145 43.4454 33.4408C43.4794 32.2767 43.2721 31.1181 42.8367 30.0378C42.4013 28.9575 41.747 27.9789 40.9151 27.1634C40.0439 26.339 39.0162 25.6976 37.8927 25.2771C36.7692 24.8566 35.5727 24.6655 34.3741 24.7152H23.8043V36.5168H20.7178V42.0678H23.8043V42.7942H20.7178V47.7534H23.8043V51.0356H30.7402V47.7534H37.3978V42.7942H30.7402V42.1485H34.0959ZM35.6033 44.5877V45.9598H28.9456V49.242H25.5989V45.9598H22.5123V44.5877H25.5989V40.2743H22.5123V38.3103H25.5989V26.4819H34.3741C35.3401 26.4322 36.3062 26.5782 37.2144 26.911C38.1226 27.2439 38.9541 27.7568 39.6589 28.4189C40.3247 29.0696 40.8462 29.8529 41.1893 30.7181C41.5325 31.5833 41.6897 32.511 41.6509 33.4408C41.6839 34.3693 41.5158 35.2939 41.158 36.1514C40.8003 37.0089 40.2614 37.779 39.5782 38.409C38.0793 39.7553 36.1087 40.4548 34.0959 40.355H28.9456V44.5877H35.6033ZM36.7877 37.01C37.2814 36.5717 37.6706 36.0284 37.9267 35.4201C38.1829 34.8118 38.2996 34.1539 38.2682 33.4946C38.2949 32.8399 38.176 32.1875 37.92 31.5842C37.664 30.981 37.2772 30.442 36.7877 30.0062C35.6744 29.125 34.2754 28.6845 32.8577 28.7686H28.9456V38.2386H32.8039C34.2376 38.3311 35.6554 37.8939 36.7877 37.01ZM30.7761 30.5622H32.8398C33.8198 30.4902 34.7933 30.77 35.5854 31.3514C35.8857 31.6189 36.1222 31.9503 36.2774 32.3212C36.4327 32.6921 36.5028 33.0931 36.4826 33.4946C36.5056 33.8992 36.4368 34.3036 36.2814 34.6779C36.126 35.0521 35.8881 35.3864 35.5854 35.6559C34.7844 36.2398 33.8015 36.5196 32.8128 36.445H30.7491L30.7761 30.5622ZM36.7877 30.0062C35.6744 29.125 34.2754 28.6845 32.8577 28.7686H28.9456V38.2386H32.8039C34.2376 38.3311 35.6554 37.8939 36.7877 37.01C37.2814 36.5717 37.6706 36.0284 37.9267 35.4201C38.1829 34.8118 38.2996 34.1539 38.2682 33.4946C38.2949 32.8399 38.176 32.1875 37.92 31.5842C37.664 30.981 37.2772 30.442 36.7877 30.0062ZM35.5943 35.6559C34.7933 36.2398 33.8105 36.5196 32.8218 36.445H30.7581V30.5622H32.8398C33.8198 30.4902 34.7933 30.77 35.5854 31.3514C35.8857 31.6189 36.1222 31.9503 36.2774 32.3212C36.4327 32.6921 36.5028 33.0931 36.4826 33.4946C36.5045 33.8999 36.4343 34.3048 36.2773 34.6791C36.1204 35.0533 35.8808 35.3873 35.5764 35.6559H35.5943ZM36.7877 30.0062C35.6744 29.125 34.2754 28.6845 32.8577 28.7686H28.9456V38.2386H32.8039C34.2376 38.3311 35.6554 37.8939 36.7877 37.01C37.2814 36.5717 37.6706 36.0284 37.9267 35.4201C38.1829 34.8118 38.2996 34.1539 38.2682 33.4946C38.2949 32.8399 38.176 32.1875 37.92 31.5842C37.664 30.981 37.2772 30.442 36.7877 30.0062ZM35.5943 35.6559C34.7933 36.2398 33.8105 36.5196 32.8218 36.445H30.7581V30.5622H32.8398C33.8198 30.4902 34.7933 30.77 35.5854 31.3514C35.8857 31.6189 36.1222 31.9503 36.2774 32.3212C36.4327 32.6921 36.5028 33.0931 36.4826 33.4946C36.5045 33.8999 36.4343 34.3048 36.2773 34.6791C36.1204 35.0533 35.8808 35.3873 35.5764 35.6559H35.5943Z" fill="#FF6732"/>
<path d="M32.077 12.752C27.9116 12.7461 23.81 13.7754 20.1414 15.7473C16.4728 17.7193 13.3524 20.5719 11.0609 24.0486C8.76949 27.5253 7.37892 31.5169 7.01437 35.6641C6.64982 39.8114 7.32275 43.9841 8.97258 47.8069C9.44678 48.9074 10.0016 49.9715 10.6325 50.9904C11.9055 53.0343 13.4612 54.888 15.2534 56.4966H18.0708C15.6968 54.7069 13.6817 52.486 12.1309 49.9502C11.6051 49.0869 11.1404 48.188 10.7402 47.2598C9.41944 44.3029 8.74056 41.0998 8.74826 37.8617C8.74826 31.6778 11.2061 25.7473 15.5811 21.3747C19.9561 17.002 25.8899 14.5455 32.077 14.5455C38.2642 14.5455 44.198 17.002 48.573 21.3747C52.948 25.7473 55.4058 31.6778 55.4058 37.8617C55.4058 38.6957 55.4058 39.5207 55.2802 40.3368C55.2758 40.3574 55.2758 40.3788 55.2802 40.3995C55.8853 40.4403 56.4857 40.5333 57.0747 40.6775C57.0747 40.552 57.0747 40.4354 57.0747 40.3098C57.1555 39.5028 57.1913 38.6867 57.1913 37.8617C57.1913 31.2037 54.5457 24.8183 49.8361 20.1096C45.1265 15.4009 38.7386 12.7544 32.077 12.752Z" fill="#FF6732"/>
<path d="M110.57 17.2538C109.456 16.3726 108.057 15.932 106.64 16.0162H102.745V25.4861H106.604C108.025 25.5698 109.429 25.133 110.552 24.2576C111.045 23.8192 111.434 23.276 111.691 22.6677C111.947 22.0594 112.064 21.4014 112.032 20.7422C112.061 20.0889 111.945 19.4373 111.692 18.8341C111.439 18.231 111.056 17.6913 110.57 17.2538ZM109.376 22.9034C108.575 23.4874 107.592 23.7671 106.604 23.6926H104.54V17.8098H106.64C107.62 17.7378 108.593 18.0176 109.385 18.5989C109.685 18.8665 109.922 19.1979 110.077 19.5688C110.233 19.9397 110.303 20.3406 110.282 20.7422C110.304 21.1474 110.234 21.5523 110.077 21.9266C109.92 22.3009 109.681 22.6348 109.376 22.9034ZM110.57 17.2538C109.456 16.3726 108.057 15.932 106.64 16.0162H102.745V25.4861H106.604C108.025 25.5698 109.429 25.133 110.552 24.2576C111.045 23.8192 111.434 23.276 111.691 22.6677C111.947 22.0594 112.064 21.4014 112.032 20.7422C112.061 20.0889 111.945 19.4373 111.692 18.8341C111.439 18.231 111.056 17.6913 110.57 17.2538ZM109.376 22.9034C108.575 23.4874 107.592 23.7671 106.604 23.6926H104.54V17.8098H106.64C107.62 17.7378 108.593 18.0176 109.385 18.5989C109.685 18.8665 109.922 19.1979 110.077 19.5688C110.233 19.9397 110.303 20.3406 110.282 20.7422C110.304 21.1474 110.234 21.5523 110.077 21.9266C109.92 22.3009 109.681 22.6348 109.376 22.9034ZM107.896 29.3961C110.364 29.4914 112.773 28.6194 114.607 26.9658C115.469 26.1673 116.149 25.1943 116.604 24.1118C117.059 23.0292 117.278 21.8621 117.245 20.6884C117.279 19.5243 117.072 18.3657 116.637 17.2854C116.201 16.2051 115.547 15.2265 114.715 14.411C113.844 13.5866 112.816 12.9452 111.693 12.5246C110.569 12.1041 109.373 11.9131 108.174 11.9628H97.6042V23.7643H94.5176V29.3154H97.6042V30.0418H94.5176V34.974H97.6042V38.2562H104.54V34.974H111.198V30.0418H104.54V29.3961H107.896ZM109.403 31.8353V33.1805H102.745V36.4627H99.3987V33.1805H96.3121V31.8353H99.3987V27.5218H96.3121V25.5579H99.3987V13.7294H108.174C109.14 13.6797 110.106 13.8257 111.014 14.1586C111.922 14.4915 112.754 15.0043 113.459 15.6665C114.125 16.3171 114.646 17.1005 114.989 17.9657C115.332 18.8309 115.49 19.7585 115.451 20.6884C115.484 21.6169 115.316 22.5415 114.958 23.399C114.6 24.2565 114.061 25.0266 113.378 25.6565C111.879 27.0028 109.908 27.7023 107.896 27.6025H102.745V31.8353H109.403ZM110.552 24.2576C111.045 23.8192 111.434 23.276 111.691 22.6677C111.947 22.0594 112.064 21.4014 112.032 20.7422C112.061 20.0889 111.945 19.4373 111.692 18.8341C111.439 18.231 111.056 17.6913 110.57 17.2538C109.456 16.3726 108.057 15.932 106.64 16.0162H102.745V25.4861H106.604C108.025 25.5698 109.429 25.133 110.552 24.2576ZM104.54 17.8098H106.64C107.62 17.7378 108.593 18.0176 109.385 18.5989C109.685 18.8665 109.922 19.1979 110.077 19.5688C110.233 19.9397 110.303 20.3406 110.282 20.7422C110.305 21.1467 110.237 21.5512 110.081 21.9254C109.926 22.2996 109.688 22.634 109.385 22.9034C108.584 23.4874 107.601 23.7671 106.613 23.6926H104.549L104.54 17.8098Z" fill="#FF6732"/>
<path d="M105.877 0C101.714 2.2538e-05 97.6169 1.0337 93.9531 3.00813C90.2894 4.98256 87.1738 7.83587 84.8865 11.3116C82.5992 14.7874 81.2118 18.7767 80.849 22.9211C80.4862 27.0654 81.1594 31.2349 82.808 35.0549C83.2822 36.1555 83.837 37.2195 84.4679 38.2385C87.0632 42.4585 90.8494 45.817 95.35 47.8915C99.8506 49.9659 104.865 50.6636 109.761 49.8967C114.657 49.1298 119.217 46.9326 122.867 43.5816C126.517 40.2306 129.094 35.8755 130.273 31.0643C130.564 29.9003 130.768 28.7163 130.883 27.522C130.964 26.7149 131 25.8988 131 25.0738C130.99 18.4205 128.339 12.043 123.629 7.34177C118.918 2.64054 112.533 -6.78906e-06 105.877 0V0ZM105.877 48.4258C101.868 48.4239 97.9281 47.3897 94.436 45.4231C90.9438 43.4566 88.0176 40.6238 85.9395 37.1982C85.4136 36.335 84.9489 35.436 84.5487 34.5079C83.2249 31.5516 82.5429 28.3485 82.5478 25.1097C82.5478 18.9259 85.0057 12.9953 89.3806 8.62269C93.7556 4.25006 99.6894 1.79355 105.877 1.79355C112.064 1.79355 117.998 4.25006 122.373 8.62269C126.748 12.9953 129.205 18.9259 129.205 25.1097C129.205 25.9437 129.16 26.7687 129.08 27.5848C129.08 27.5848 129.08 27.6386 129.08 27.6655C128.973 28.6442 128.803 29.6148 128.568 30.571C127.341 35.6614 124.435 40.1908 120.319 43.4297C116.203 46.6687 111.115 48.4285 105.877 48.4258Z" fill="#FF6732"/>
<path d="M70.8376 109.249V82.5034H49.3953V109.249H39.4795L60.1165 126.445L80.7535 109.249H70.8376Z" stroke="#FF6732" stroke-width="3" stroke-linecap="round" stroke-linejoin="round"/>
</g>
<defs>
<clipPath id="clip0_2_1881">
<rect width="131" height="139" fill="white"/>
</clipPath>
</defs>
</svg>
