<svg width="96" height="136" viewBox="0 0 96 136" fill="none" xmlns="http://www.w3.org/2000/svg">
<path d="M4.38135 74.0508C4.38135 74.0508 1.89083 101.105 9.63911 109.318C18.3757 118.596 89.4544 113.684 89.4544 113.684" stroke="#FF6732" stroke-width="3" stroke-miterlimit="10" stroke-linecap="round" stroke-linejoin="round"/>
<path d="M65.4585 93.0229L94.1192 113.632L66.4468 134.267" stroke="#FF6732" stroke-width="3" stroke-miterlimit="10" stroke-linecap="round" stroke-linejoin="round"/>
<path d="M90.635 62.918C90.635 62.918 93.8767 35.8895 86.3656 27.599C77.8662 18.243 6.62939 22.2973 6.62939 22.2973" stroke="#FF6732" stroke-width="3" stroke-miterlimit="10" stroke-linecap="round" stroke-linejoin="round"/>
<path d="M30.0721 43.2445L1.96484 22.2974L30.2303 2" stroke="#FF6732" stroke-width="3" stroke-miterlimit="10" stroke-linecap="round" stroke-linejoin="round"/>
<path d="M26.69 78.3908L25.9932 79.1081L26.69 78.3908ZM25.64 67.8908H26.64V66.8908H25.64V67.8908ZM23.24 67.8908H22.24V68.8908H23.24V67.8908ZM23.24 64.5608V63.5608H22.24V64.5608H23.24ZM25.64 64.5608V65.5608H26.64V64.5608H25.64ZM25.64 60.6008V59.6008H24.64V60.6008H25.64ZM29.48 60.6008H30.48V59.6008H29.48V60.6008ZM29.48 64.5608H28.48V65.5608H29.48V64.5608ZM32.42 64.5608H33.42V63.5608H32.42V64.5608ZM32.42 67.8908V68.8908H33.42V67.8908H32.42ZM29.48 67.8908V66.8908H28.48V67.8908H29.48ZM29.84 75.5708L30.6209 74.9461H30.6209L29.84 75.5708ZM32.12 75.6008L33.0827 75.33L32.6203 73.6862L31.4129 74.8937L32.12 75.6008ZM32.93 78.4808L33.593 79.2294L34.0624 78.8136L33.8927 78.21L32.93 78.4808ZM29.75 78.4108C28.5714 78.4108 27.8396 78.1134 27.3868 77.6735L25.9932 79.1081C26.9404 80.0282 28.2486 80.4108 29.75 80.4108V78.4108ZM27.3868 77.6735C26.9357 77.2353 26.64 76.5484 26.64 75.4508H24.64C24.64 76.9131 25.0443 78.1862 25.9932 79.1081L27.3868 77.6735ZM26.64 75.4508V67.8908H24.64V75.4508H26.64ZM25.64 66.8908H23.24V68.8908H25.64V66.8908ZM24.24 67.8908V64.5608H22.24V67.8908H24.24ZM23.24 65.5608H25.64V63.5608H23.24V65.5608ZM26.64 64.5608V60.6008H24.64V64.5608H26.64ZM25.64 61.6008H29.48V59.6008H25.64V61.6008ZM28.48 60.6008V64.5608H30.48V60.6008H28.48ZM29.48 65.5608H32.42V63.5608H29.48V65.5608ZM31.42 64.5608V67.8908H33.42V64.5608H31.42ZM32.42 66.8908H29.48V68.8908H32.42V66.8908ZM28.48 67.8908V74.4308H30.48V67.8908H28.48ZM28.48 74.4308C28.48 75.0714 28.6507 75.685 29.0591 76.1955L30.6209 74.9461C30.5493 74.8566 30.48 74.7102 30.48 74.4308H28.48ZM29.0591 76.1955C29.4978 76.7438 30.1107 77.0208 30.8 77.0208V75.0208C30.7273 75.0208 30.6951 75.0078 30.6844 75.0028C30.675 74.9984 30.6536 74.987 30.6209 74.9461L29.0591 76.1955ZM30.8 77.0208C31.5307 77.0208 32.2821 76.8529 32.8271 76.3079L31.4129 74.8937C31.3979 74.9087 31.2693 75.0208 30.8 75.0208V77.0208ZM31.1573 75.8715L31.9674 78.7515L33.8927 78.21L33.0827 75.33L31.1573 75.8715ZM32.267 77.7322C31.8244 78.1242 31.0481 78.4108 29.75 78.4108V80.4108C31.2919 80.4108 32.6356 80.0774 33.593 79.2294L32.267 77.7322ZM36.2867 77.3108L36.9788 76.589L36.2867 77.3108ZM36.1967 66.3908L35.4798 65.6935L35.4749 65.6987L36.1967 66.3908ZM46.8467 66.4208L46.1054 67.092L46.11 67.097L46.8467 66.4208ZM48.8567 73.0208V74.0208H49.8567V73.0208H48.8567ZM38.0867 73.0208V72.0208H36.9539L37.0944 73.1448L38.0867 73.0208ZM44.3267 75.9908L44.003 75.0446L43.9952 75.0473L44.3267 75.9908ZM46.1267 74.9408L46.9525 74.3768L46.2724 73.3809L45.4196 74.2337L46.1267 74.9408ZM47.8067 77.4008L48.4829 78.1375L49.1209 77.552L48.6325 76.8368L47.8067 77.4008ZM45.1667 70.4408V71.4408H46.2426L46.1641 70.3678L45.1667 70.4408ZM44.1767 68.2208L43.4256 68.8809L43.4311 68.8872L43.4368 68.8935L44.1767 68.2208ZM39.0767 68.2208L39.8063 68.9047L39.8115 68.8991L39.8167 68.8935L39.0767 68.2208ZM38.0267 70.4408L37.0337 70.3226L36.9006 71.4408H38.0267V70.4408ZM41.8367 78.4108C39.8245 78.4108 38.2319 77.7906 36.9788 76.589L35.5946 78.0326C37.2615 79.631 39.3689 80.4108 41.8367 80.4108V78.4108ZM36.9788 76.589C35.7414 75.4024 35.0967 73.8363 35.0967 71.7908H33.0967C33.0967 74.3052 33.912 76.4192 35.5946 78.0326L36.9788 76.589ZM35.0967 71.7908C35.0967 69.8922 35.7081 68.3451 36.9185 67.0829L35.4749 65.6987C33.8853 67.3564 33.0967 69.4093 33.0967 71.7908H35.0967ZM36.9136 67.088C38.1311 65.8362 39.6656 65.2008 41.5967 65.2008V63.2008C39.1678 63.2008 37.1024 64.0253 35.4799 65.6936L36.9136 67.088ZM41.5967 65.2008C43.5002 65.2008 44.9717 65.8398 46.1054 67.092L47.588 65.7496C46.0417 64.0417 44.0132 63.2008 41.5967 63.2008V65.2008ZM46.11 67.097C47.2479 68.3367 47.8567 69.998 47.8567 72.1808H49.8567C49.8567 69.6035 49.1256 67.4248 47.5835 65.7446L46.11 67.097ZM47.8567 72.1808V73.0208H49.8567V72.1808H47.8567ZM48.8567 72.0208H38.0867V74.0208H48.8567V72.0208ZM37.0944 73.1448C37.2455 74.3532 37.7979 75.3774 38.7226 76.1771L40.0309 74.6644C39.4755 74.1841 39.168 73.6084 39.079 72.8967L37.0944 73.1448ZM38.7226 76.1771C39.6799 77.0051 40.8883 77.3808 42.2567 77.3808V75.3808C41.2652 75.3808 40.5535 75.1164 40.0309 74.6644L38.7226 76.1771ZM42.2567 77.3808C43.0318 77.3808 43.8349 77.2235 44.6582 76.9342L43.9952 75.0473C43.3386 75.278 42.7616 75.3808 42.2567 75.3808V77.3808ZM44.6504 76.9369C45.5142 76.6414 46.2593 76.2225 46.8338 75.6479L45.4196 74.2337C45.1142 74.5391 44.6592 74.8201 44.003 75.0446L44.6504 76.9369ZM45.3009 75.5047L46.9809 77.9647L48.6325 76.8368L46.9525 74.3768L45.3009 75.5047ZM47.1305 76.664C45.9011 77.7924 44.1768 78.4108 41.8367 78.4108V80.4108C44.5366 80.4108 46.7923 79.6891 48.4829 78.1375L47.1305 76.664ZM46.1641 70.3678C46.0863 69.3054 45.6535 68.3586 44.9167 67.5481L43.4368 68.8935C43.8999 69.4029 44.1271 69.9362 44.1694 70.5138L46.1641 70.3678ZM44.9279 67.5607C44.1052 66.6245 42.9332 66.2308 41.5967 66.2308V68.2308C42.5402 68.2308 43.0883 68.4971 43.4256 68.8809L44.9279 67.5607ZM41.5967 66.2308C40.2993 66.2308 39.1657 66.6363 38.3368 67.5481L39.8167 68.8935C40.1878 68.4852 40.7341 68.2308 41.5967 68.2308V66.2308ZM38.3472 67.5368C37.607 68.3263 37.1599 69.2625 37.0337 70.3226L39.0197 70.559C39.0935 69.9391 39.3464 69.3952 39.8063 68.9047L38.3472 67.5368ZM38.0267 71.4408H45.1667V69.4408H38.0267V71.4408ZM53.1987 78.8108L52.8677 79.7544L52.8728 79.7562L53.1987 78.8108ZM50.3487 77.1608L49.4981 76.6351L49.0642 77.3372L49.6713 77.8963L50.3487 77.1608ZM51.9988 74.4908L52.6792 73.758L51.7877 72.9301L51.1481 73.9651L51.9988 74.4908ZM54.2787 75.8708L54.6634 74.9477L54.2787 75.8708ZM58.8088 76.0508L58.2541 75.2187L58.2446 75.225L58.2353 75.2316L58.8088 76.0508ZM58.7788 74.0408L58.2826 74.909L58.3067 74.9228L58.3315 74.9352L58.7788 74.0408ZM57.1888 73.5308L57.0295 74.518L57.0344 74.5188L57.1888 73.5308ZM55.1188 73.0808L54.8578 74.0462L54.8643 74.0479L55.1188 73.0808ZM53.0487 72.3608L52.6371 73.2722L52.6479 73.2769L53.0487 72.3608ZM51.4587 71.0408L50.6308 71.6016L50.6413 71.6171L50.6523 71.6321L51.4587 71.0408ZM52.4188 65.5208L51.78 64.7514L52.4188 65.5208ZM62.6188 66.1808L63.4814 66.6865L63.9202 65.938L63.2411 65.3981L62.6188 66.1808ZM61.0887 68.7908L60.3668 69.4827L61.2823 70.438L61.9514 69.2965L61.0887 68.7908ZM59.2287 67.5908L58.8407 68.5125L58.8492 68.5159L59.2287 67.5908ZM55.1488 67.5308L55.6751 68.381L55.6894 68.3722L55.7035 68.3628L55.1488 67.5308ZM55.1488 69.3608L54.6847 70.2466L54.7016 70.2555L54.7188 70.2636L55.1488 69.3608ZM56.7388 69.8108L56.8931 68.8228L56.7388 69.8108ZM58.8088 70.2908L58.5238 71.2493L58.5358 71.2529L58.5478 71.2561L58.8088 70.2908ZM60.8787 71.0408L60.4543 71.9462L60.4661 71.9517L60.4779 71.9569L60.8787 71.0408ZM61.4188 78.1208L62.0347 78.9086L62.0366 78.9071L61.4188 78.1208ZM56.8288 78.4108C55.6767 78.4108 54.577 78.2283 53.5247 77.8654L52.8728 79.7562C54.1405 80.1933 55.4608 80.4108 56.8288 80.4108V78.4108ZM53.5298 77.8672C52.4968 77.5047 51.6706 77.0188 51.0262 76.4252L49.6713 77.8963C50.5469 78.7028 51.6207 79.3169 52.8677 79.7544L53.5298 77.8672ZM51.1994 77.6865L52.8494 75.0165L51.1481 73.9651L49.4981 76.6351L51.1994 77.6865ZM51.3183 75.2236C51.9899 75.8472 52.8618 76.3637 53.8941 76.7939L54.6634 74.9477C53.7757 74.5778 53.1276 74.1743 52.6792 73.758L51.3183 75.2236ZM53.8941 76.7939C54.9511 77.2343 55.9922 77.4708 57.0088 77.4708V75.4708C56.3053 75.4708 55.5264 75.3073 54.6634 74.9477L53.8941 76.7939ZM57.0088 77.4708C57.8947 77.4708 58.7375 77.3213 59.3822 76.87L58.2353 75.2316C58.08 75.3403 57.7228 75.4708 57.0088 75.4708V77.4708ZM59.3634 76.8828C60.0445 76.4288 60.4388 75.7452 60.4388 74.9108H58.4388C58.4388 75.0363 58.413 75.1128 58.2541 75.2187L59.3634 76.8828ZM60.4388 74.9108C60.4388 74.0342 59.8609 73.4638 59.226 73.1464L58.3315 74.9352C58.3936 74.9662 58.433 74.9924 58.4561 75.0102C58.4788 75.0277 58.4824 75.0347 58.4771 75.0277C58.4709 75.0196 58.4594 75.0014 58.4503 74.9745C58.4411 74.9475 58.4388 74.9244 58.4388 74.9108H60.4388ZM59.2749 73.1725C58.7201 72.8555 58.0651 72.6556 57.3431 72.5428L57.0344 74.5188C57.5924 74.606 57.9974 74.7461 58.2826 74.909L59.2749 73.1725ZM57.348 72.5435C56.7668 72.4498 56.1093 72.3074 55.3732 72.1137L54.8643 74.0479C55.6482 74.2542 56.3707 74.4118 57.0295 74.518L57.348 72.5435ZM55.3797 72.1154C54.6829 71.9271 54.0401 71.703 53.4496 71.4446L52.6479 73.2769C53.3374 73.5786 54.0746 73.8345 54.8578 74.0461L55.3797 72.1154ZM53.4603 71.4494C53.0117 71.2468 52.6131 70.9239 52.2652 70.4494L50.6523 71.6321C51.1844 72.3577 51.8458 72.9147 52.6372 73.2722L53.4603 71.4494ZM52.2867 70.4799C51.9998 70.0564 51.8288 69.5018 51.8288 68.7608H49.8288C49.8288 69.8197 50.0777 70.7851 50.6308 71.6016L52.2867 70.4799ZM51.8288 68.7608C51.8288 67.8032 52.2064 66.9967 53.0575 66.2902L51.78 64.7514C50.5111 65.8048 49.8288 67.1584 49.8288 68.7608H51.8288ZM53.0575 66.2902C53.8856 65.6027 55.0833 65.2008 56.7687 65.2008V63.2008C54.7742 63.2008 53.0719 63.6788 51.78 64.7514L53.0575 66.2902ZM56.7687 65.2008C58.7963 65.2008 60.5237 65.7925 61.9964 66.9635L63.2411 65.3981C61.3938 63.9291 59.2212 63.2008 56.7687 63.2008V65.2008ZM61.7561 65.6751L60.2261 68.2851L61.9514 69.2965L63.4814 66.6865L61.7561 65.6751ZM61.8107 68.0989C61.2319 67.4949 60.4841 67.0249 59.6083 66.6656L58.8492 68.5159C59.5334 68.7967 60.0256 69.1267 60.3668 69.4827L61.8107 68.0989ZM59.6168 66.6691C58.7287 66.2952 57.7862 66.1108 56.7988 66.1108V68.1108C57.5313 68.1108 58.2088 68.2464 58.8407 68.5124L59.6168 66.6691ZM56.7988 66.1108C55.9883 66.1108 55.2263 66.2772 54.594 66.6987L55.7035 68.3628C55.9112 68.2244 56.2492 68.1108 56.7988 68.1108V66.1108ZM54.6224 66.6805C53.9687 67.0852 53.5188 67.7185 53.5188 68.5508H55.5187C55.5187 68.5299 55.5212 68.5199 55.522 68.5171C55.5227 68.5147 55.5236 68.5118 55.5271 68.5063C55.5336 68.4957 55.5665 68.4483 55.6751 68.381L54.6224 66.6805ZM53.5188 68.5508C53.5188 69.407 54.1118 69.9465 54.6847 70.2466L55.6128 68.4749C55.551 68.4426 55.511 68.4157 55.4871 68.3971C55.4632 68.3785 55.4595 68.3715 55.4656 68.3793C55.4725 68.3882 55.4876 68.4106 55.5002 68.4461C55.5131 68.4824 55.5187 68.5191 55.5187 68.5508H53.5188ZM54.7188 70.2636C55.2528 70.5179 55.8833 70.6893 56.5844 70.7988L56.8931 68.8228C56.3142 68.7323 55.8847 68.6037 55.5787 68.4579L54.7188 70.2636ZM56.5844 70.7988C57.1728 70.8907 57.8188 71.0397 58.5238 71.2493L59.0937 69.3322C58.3187 69.1018 57.5847 68.9308 56.8931 68.8228L56.5844 70.7988ZM58.5478 71.2561C59.2364 71.4422 59.8712 71.6729 60.4543 71.9462L61.3032 70.1353C60.6063 69.8087 59.8611 69.5393 59.0697 69.3254L58.5478 71.2561ZM60.4779 71.9569C60.9234 72.1518 61.3085 72.4754 61.6327 72.9694L63.3048 71.8721C62.789 71.0862 62.1141 70.4897 61.2796 70.1246L60.4779 71.9569ZM61.6327 72.9694C61.9258 73.416 62.0988 73.9959 62.0988 74.7608H64.0988C64.0988 73.6857 63.8517 72.7055 63.3048 71.8721L61.6327 72.9694ZM62.0988 74.7608C62.0988 75.7975 61.6929 76.6336 60.8009 77.3345L62.0366 78.9071C63.3846 77.8479 64.0988 76.4441 64.0988 74.7608H62.0988ZM60.8028 77.333C59.9375 78.0095 58.6538 78.4108 56.8288 78.4108V80.4108C58.9237 80.4108 60.7 79.9521 62.0347 78.9086L60.8028 77.333ZM67.7056 78.3908L67.0088 79.1081L67.7056 78.3908ZM66.6556 67.8908H67.6556V66.8908H66.6556V67.8908ZM64.2556 67.8908H63.2556V68.8908H64.2556V67.8908ZM64.2556 64.5608V63.5608H63.2556V64.5608H64.2556ZM66.6556 64.5608V65.5608H67.6556V64.5608H66.6556ZM66.6556 60.6008V59.6008H65.6556V60.6008H66.6556ZM70.4956 60.6008H71.4956V59.6008H70.4956V60.6008ZM70.4956 64.5608H69.4956V65.5608H70.4956V64.5608ZM73.4356 64.5608H74.4356V63.5608H73.4356V64.5608ZM73.4356 67.8908V68.8908H74.4356V67.8908H73.4356ZM70.4956 67.8908V66.8908H69.4956V67.8908H70.4956ZM70.8556 75.5708L71.6365 74.9461L70.8556 75.5708ZM73.1356 75.6008L74.0983 75.33L73.636 73.6862L72.4285 74.8937L73.1356 75.6008ZM73.9456 78.4808L74.6087 79.2294L75.078 78.8136L74.9083 78.21L73.9456 78.4808ZM70.7656 78.4108C69.587 78.4108 68.8552 78.1134 68.4024 77.6735L67.0088 79.1081C67.956 80.0282 69.2642 80.4108 70.7656 80.4108V78.4108ZM68.4024 77.6735C67.9513 77.2353 67.6556 76.5484 67.6556 75.4508H65.6556C65.6556 76.9131 66.0599 78.1862 67.0088 79.1081L68.4024 77.6735ZM67.6556 75.4508V67.8908H65.6556V75.4508H67.6556ZM66.6556 66.8908H64.2556V68.8908H66.6556V66.8908ZM65.2556 67.8908V64.5608H63.2556V67.8908H65.2556ZM64.2556 65.5608H66.6556V63.5608H64.2556V65.5608ZM67.6556 64.5608V60.6008H65.6556V64.5608H67.6556ZM66.6556 61.6008H70.4956V59.6008H66.6556V61.6008ZM69.4956 60.6008V64.5608H71.4956V60.6008H69.4956ZM70.4956 65.5608H73.4356V63.5608H70.4956V65.5608ZM72.4356 64.5608V67.8908H74.4356V64.5608H72.4356ZM73.4356 66.8908H70.4956V68.8908H73.4356V66.8908ZM69.4956 67.8908V74.4308H71.4956V67.8908H69.4956ZM69.4956 74.4308C69.4956 75.0714 69.6664 75.685 70.0748 76.1955L71.6365 74.9461C71.5649 74.8566 71.4956 74.7102 71.4956 74.4308H69.4956ZM70.0748 76.1955C70.5134 76.7438 71.1263 77.0208 71.8156 77.0208V75.0208C71.7429 75.0208 71.7107 75.0078 71.7001 75.0028C71.6906 74.9984 71.6693 74.987 71.6365 74.9461L70.0748 76.1955ZM71.8156 77.0208C72.5464 77.0208 73.2977 76.8529 73.8427 76.3079L72.4285 74.8937C72.4135 74.9087 72.2849 75.0208 71.8156 75.0208V77.0208ZM72.173 75.8715L72.983 78.7515L74.9083 78.21L74.0983 75.33L72.173 75.8715ZM73.2826 77.7322C72.84 78.1242 72.0637 78.4108 70.7656 78.4108V80.4108C72.3075 80.4108 73.6512 80.0774 74.6087 79.2294L73.2826 77.7322Z" fill="#FF6732"/>
</svg>
