<svg width="164" height="154" viewBox="0 0 164 154" fill="none" xmlns="http://www.w3.org/2000/svg">
<path d="M134.574 82.5435C140.262 79.8458 144.846 75.2618 147.543 69.5739C150.241 75.2618 154.825 79.8458 160.513 82.5435C154.825 85.2411 150.241 89.8251 147.543 95.5131C144.846 89.8251 140.262 85.2411 134.574 82.5435Z" stroke="#FF6732" stroke-width="2" stroke-linecap="round" stroke-linejoin="round"/>
<path d="M22.3055 12.7174C26.7278 10.5286 30.3114 6.94509 32.5001 2.52282C34.6888 6.94509 38.2724 10.5287 42.6947 12.7174C38.2724 14.9061 34.6888 18.4897 32.5001 22.912C30.3114 18.4897 26.7278 14.9061 22.3055 12.7174Z" stroke="#FF6732" stroke-width="2" stroke-linecap="round" stroke-linejoin="round"/>
<path d="M2.49023 31.0871C6.28578 29.1561 9.37337 26.0685 11.3043 22.2729C13.2353 26.0685 16.3229 29.1561 20.1185 31.0871C16.3229 33.018 13.2353 36.1056 11.3043 39.9012C9.37337 36.1056 6.28578 33.018 2.49023 31.0871Z" stroke="#FF6732" stroke-width="2" stroke-linecap="round" stroke-linejoin="round"/>
<circle cx="77.4887" cy="98.915" r="27.4003" stroke="#FF6732" stroke-width="2"/>
<path d="M120.847 152H34.4968C32.013 152 30 149.985 30 147.499V38.5005C30.0014 36.0147 32.0144 34 34.4968 34H120.847C123.331 34 125.344 36.0147 125.344 38.5005V147.499C125.344 149.985 123.331 152 120.847 152Z" stroke="#FF6732" stroke-width="4" stroke-miterlimit="10"/>
<path d="M109.099 49.2847C111.599 49.2847 113.626 47.1332 113.626 44.4793C113.626 41.8253 111.599 39.6738 109.099 39.6738C106.598 39.6738 104.571 41.8253 104.571 44.4793C104.571 47.1332 106.598 49.2847 109.099 49.2847Z" stroke="#FF6732" stroke-width="2" stroke-miterlimit="10"/>
<path d="M30 53.9561L125.441 53.9618" stroke="#FF6732" stroke-width="2" stroke-miterlimit="10"/>
<path d="M30 141.32H125.441" stroke="#FF6732" stroke-width="2" stroke-miterlimit="10"/>
<path d="M90.1899 141.32V152" stroke="#FF6732" stroke-width="2" stroke-miterlimit="10"/>
<path d="M69.9116 34V53.9559" stroke="#FF6732" stroke-width="2" stroke-miterlimit="10"/>
<path d="M59.8293 43.2104H41.7192V44.2783H59.8293V43.2104Z" stroke="#FF6732" stroke-width="2" stroke-miterlimit="10"/>
<path d="M99.5106 47.1482C101.129 47.1482 102.44 45.8334 102.44 44.2116C102.44 42.5897 101.129 41.2749 99.5106 41.2749C97.8927 41.2749 96.5811 42.5897 96.5811 44.2116C96.5811 45.8334 97.8927 47.1482 99.5106 47.1482Z" stroke="#FF6732" stroke-width="2" stroke-miterlimit="10"/>
</svg>
