<svg width="124" height="108" viewBox="0 0 124 108" fill="none" xmlns="http://www.w3.org/2000/svg">
<path d="M37.2 95.44C49.6573 95.44 58.8237 89.7059 64.769 81.1985C70.6379 72.8005 73.32 61.8036 73.32 51.04H67.32C67.32 60.9164 64.8421 70.6195 59.851 77.7615C54.9363 84.7941 47.5427 89.44 37.2 89.44V95.44ZM73.32 51.04C73.32 40.276 70.6377 29.3068 64.7659 20.9371C58.8172 12.4577 49.6502 6.75999 37.2 6.75999V12.76C47.5498 12.76 54.9428 17.3823 59.8541 24.3829C64.8423 31.4932 67.32 41.164 67.32 51.04H73.32ZM37.2 6.75999C24.6937 6.75999 15.5236 12.4545 9.58686 20.9403C3.72927 29.3129 1.08 40.2828 1.08 51.04H7.08C7.08 41.1572 9.53073 31.4871 14.5031 24.3797C19.3964 17.3855 26.7863 12.76 37.2 12.76V6.75999ZM1.08 51.04C1.08 61.7969 3.72908 72.7944 9.58374 81.1953C15.5171 89.7091 24.6866 95.44 37.2 95.44V89.44C26.7934 89.44 19.4029 84.7909 14.5063 77.7647C9.53092 70.6256 7.08 60.9231 7.08 51.04H1.08ZM37.2 74.32C32.702 74.32 29.6824 72.1945 27.6071 68.3032C25.4236 64.2093 24.36 58.2131 24.36 51.04H18.36C18.36 58.6269 19.4564 65.7707 22.3129 71.1268C25.2776 76.6855 30.178 80.32 37.2 80.32V74.32ZM24.36 51.04C24.36 43.8662 25.4239 37.9041 27.6033 33.8438C29.6717 29.9901 32.6876 27.88 37.2 27.88V21.88C30.1924 21.88 25.2883 25.4699 22.3167 31.0062C19.4561 36.3358 18.36 43.4538 18.36 51.04H24.36ZM37.2 27.88C41.6383 27.88 44.628 29.9758 46.6882 33.8372C48.8564 37.901 49.92 43.867 49.92 51.04H55.92C55.92 43.453 54.8236 36.339 51.9818 31.0128C49.0321 25.4842 44.1617 21.88 37.2 21.88V27.88ZM49.92 51.04C49.92 58.2123 48.8567 64.2124 46.6845 68.3098C44.6173 72.209 41.6238 74.32 37.2 74.32V80.32C44.1762 80.32 49.0428 76.671 51.9855 71.1202C54.8233 65.7676 55.92 58.6277 55.92 51.04H49.92ZM115.814 91V94H118.814V91H115.814ZM115.814 10.96H118.814V7.95999H115.814V10.96ZM100.934 10.96V7.95999H99.6872L98.8077 8.84372L100.934 10.96ZM75.7341 36.28L73.6077 34.1637L71.5467 36.2345L73.5623 38.3496L75.7341 36.28ZM85.4541 46.48L83.2823 48.5496L85.4214 50.7943L87.5942 48.5823L85.4541 46.48ZM98.7741 32.92H101.774V25.5849L96.6339 30.8177L98.7741 32.92ZM98.7741 91H95.7741V94H98.7741V91ZM118.814 91V10.96H112.814V91H118.814ZM115.814 7.95999H100.934V13.96H115.814V7.95999ZM98.8077 8.84372L73.6077 34.1637L77.8604 38.3963L103.06 13.0763L98.8077 8.84372ZM73.5623 38.3496L83.2823 48.5496L87.6259 44.4104L77.9059 34.2104L73.5623 38.3496ZM87.5942 48.5823L100.914 35.0223L96.6339 30.8177L83.3139 44.3777L87.5942 48.5823ZM95.7741 32.92V91H101.774V32.92H95.7741ZM98.7741 94H115.814V88H98.7741V94Z" fill="#FF6732"/>
</svg>
