<svg width="147" height="108" viewBox="0 0 147 108" fill="none" xmlns="http://www.w3.org/2000/svg">
<path d="M37.2 95.44C49.6573 95.44 58.8237 89.7059 64.769 81.1985C70.6379 72.8005 73.32 61.8036 73.32 51.04H67.32C67.32 60.9164 64.8421 70.6195 59.851 77.7615C54.9363 84.7941 47.5427 89.44 37.2 89.44V95.44ZM73.32 51.04C73.32 40.276 70.6377 29.3068 64.7659 20.9371C58.8172 12.4577 49.6502 6.75999 37.2 6.75999V12.76C47.5498 12.76 54.9428 17.3823 59.8541 24.3829C64.8423 31.4932 67.32 41.164 67.32 51.04H73.32ZM37.2 6.75999C24.6937 6.75999 15.5236 12.4545 9.58686 20.9403C3.72927 29.3129 1.08 40.2828 1.08 51.04H7.08C7.08 41.1572 9.53073 31.4871 14.5031 24.3797C19.3964 17.3855 26.7863 12.76 37.2 12.76V6.75999ZM1.08 51.04C1.08 61.7969 3.72908 72.7944 9.58374 81.1953C15.5171 89.7091 24.6866 95.44 37.2 95.44V89.44C26.7934 89.44 19.4029 84.7909 14.5063 77.7647C9.53092 70.6256 7.08 60.9231 7.08 51.04H1.08ZM37.2 74.32C32.702 74.32 29.6824 72.1945 27.6071 68.3032C25.4236 64.2093 24.36 58.2131 24.36 51.04H18.36C18.36 58.6269 19.4564 65.7707 22.3129 71.1268C25.2776 76.6855 30.178 80.32 37.2 80.32V74.32ZM24.36 51.04C24.36 43.8662 25.4239 37.9041 27.6033 33.8438C29.6717 29.9901 32.6876 27.88 37.2 27.88V21.88C30.1924 21.88 25.2883 25.4699 22.3167 31.0062C19.4561 36.3358 18.36 43.4538 18.36 51.04H24.36ZM37.2 27.88C41.6383 27.88 44.628 29.9758 46.6882 33.8372C48.8564 37.901 49.92 43.867 49.92 51.04H55.92C55.92 43.453 54.8236 36.339 51.9818 31.0128C49.0321 25.4842 44.1617 21.88 37.2 21.88V27.88ZM49.92 51.04C49.92 58.2123 48.8567 64.2124 46.6845 68.3098C44.6173 72.209 41.6238 74.32 37.2 74.32V80.32C44.1762 80.32 49.0428 76.671 51.9855 71.1202C54.8233 65.7676 55.92 58.6277 55.92 51.04H49.92ZM140.294 91V94H143.294V91H140.294ZM140.294 76H143.294V73H140.294V76ZM107.654 76L105.888 73.575L98.4393 79H107.654V76ZM78.2541 22.84L75.987 20.8752L74.2891 22.8344L75.9814 24.7983L78.2541 22.84ZM87.9741 34.12L85.7014 36.0783L87.8572 38.58L90.141 36.1947L87.9741 34.12ZM80.0541 77.68L78.2696 75.2684L77.0541 76.1678V77.68H80.0541ZM80.0541 91H77.0541V94H80.0541V91ZM143.294 91V76H137.294V91H143.294ZM140.294 73H107.654V79H140.294V73ZM109.42 78.425C119.852 70.8275 128.112 63.8983 133.774 57.028C139.473 50.114 142.694 43.0711 142.694 35.32H136.694C136.694 41.2489 134.275 46.986 129.144 53.2119C123.977 59.4817 116.216 66.0525 105.888 73.575L109.42 78.425ZM142.694 35.32C142.694 26.4015 138.868 19.1567 132.653 14.208C126.499 9.30842 118.149 6.75999 109.094 6.75999V12.76C117.079 12.76 124.029 15.0116 128.915 18.902C133.74 22.7433 136.694 28.2785 136.694 35.32H142.694ZM109.094 6.75999C97.2783 6.75999 84.4836 11.0714 75.987 20.8752L80.5211 24.8048C87.6245 16.6086 98.5898 12.76 109.094 12.76V6.75999ZM75.9814 24.7983L85.7014 36.0783L90.2467 32.1617L80.5267 20.8817L75.9814 24.7983ZM90.141 36.1947C95.0383 31.0798 101.239 27.88 109.454 27.88V21.88C99.4287 21.88 91.7098 25.8802 85.8071 32.0453L90.141 36.1947ZM109.454 27.88C112.276 27.88 114.861 28.6316 116.655 29.924C118.357 31.1503 119.414 32.8872 119.414 35.32H125.414C125.414 30.7928 123.291 27.3097 120.163 25.056C117.127 22.8684 113.232 21.88 109.454 21.88V27.88ZM119.414 35.32C119.414 39.0217 117.72 42.8162 111.425 48.9516C105.105 55.1111 94.6948 63.115 78.2696 75.2684L81.8385 80.0916C98.1734 68.005 108.943 59.7489 115.613 53.2484C122.308 46.7238 125.414 41.4583 125.414 35.32H119.414ZM77.0541 77.68V91H83.0541V77.68H77.0541ZM80.0541 94H140.294V88H80.0541V94Z" fill="#FF6732"/>
</svg>
