<svg width="145" height="108" viewBox="0 0 145 108" fill="none" xmlns="http://www.w3.org/2000/svg">
<path d="M37.2 95.44C49.6573 95.44 58.8237 89.7059 64.769 81.1985C70.6379 72.8005 73.32 61.8036 73.32 51.04H67.32C67.32 60.9164 64.8421 70.6195 59.851 77.7615C54.9363 84.7941 47.5427 89.44 37.2 89.44V95.44ZM73.32 51.04C73.32 40.276 70.6377 29.3068 64.7659 20.9371C58.8172 12.4577 49.6502 6.75999 37.2 6.75999V12.76C47.5498 12.76 54.9428 17.3823 59.8541 24.3829C64.8423 31.4932 67.32 41.164 67.32 51.04H73.32ZM37.2 6.75999C24.6937 6.75999 15.5236 12.4545 9.58686 20.9403C3.72927 29.3129 1.08 40.2828 1.08 51.04H7.08C7.08 41.1572 9.53073 31.4871 14.5031 24.3797C19.3964 17.3855 26.7863 12.76 37.2 12.76V6.75999ZM1.08 51.04C1.08 61.7969 3.72908 72.7944 9.58374 81.1953C15.5171 89.7091 24.6866 95.44 37.2 95.44V89.44C26.7934 89.44 19.4029 84.7909 14.5063 77.7647C9.53092 70.6256 7.08 60.9231 7.08 51.04H1.08ZM37.2 74.32C32.702 74.32 29.6824 72.1945 27.6071 68.3032C25.4236 64.2093 24.36 58.2131 24.36 51.04H18.36C18.36 58.6269 19.4564 65.7707 22.3129 71.1268C25.2776 76.6855 30.178 80.32 37.2 80.32V74.32ZM24.36 51.04C24.36 43.8662 25.4239 37.9041 27.6033 33.8438C29.6717 29.9901 32.6876 27.88 37.2 27.88V21.88C30.1924 21.88 25.2883 25.4699 22.3167 31.0062C19.4561 36.3358 18.36 43.4538 18.36 51.04H24.36ZM37.2 27.88C41.6383 27.88 44.628 29.9758 46.6882 33.8372C48.8564 37.901 49.92 43.867 49.92 51.04H55.92C55.92 43.453 54.8236 36.339 51.9818 31.0128C49.0321 25.4842 44.1617 21.88 37.2 21.88V27.88ZM49.92 51.04C49.92 58.2123 48.8567 64.2124 46.6845 68.3098C44.6173 72.209 41.6238 74.32 37.2 74.32V80.32C44.1762 80.32 49.0428 76.671 51.9855 71.1202C54.8233 65.7676 55.92 58.6277 55.92 51.04H49.92ZM121.214 49.72L120.695 46.7652L120.907 52.7042L121.214 49.72ZM77.8941 22.48L75.6478 20.4915L73.9763 22.3796L75.5489 24.3509L77.8941 22.48ZM86.4141 33.16L84.0689 35.0309L86.1168 37.598L88.4888 35.3269L86.4141 33.16ZM96.8541 42.76L97.1032 39.7704L93.8541 39.4996V42.76H96.8541ZM96.8541 58.12H93.8541V61.435L97.1526 61.1051L96.8541 58.12ZM85.6941 68.2L87.86 66.1243L85.4594 63.6193L83.3273 66.3565L85.6941 68.2ZM76.8141 79.6L74.4473 77.7565L72.9769 79.6442L74.4905 81.4976L76.8141 79.6ZM108.374 95.44C118.45 95.44 127.027 92.8919 133.165 88.2471C139.363 83.556 142.934 76.8098 142.934 68.92H136.934C136.934 74.8302 134.325 79.844 129.544 83.4629C124.701 87.1281 117.498 89.44 108.374 89.44V95.44ZM142.934 68.92C142.934 54.7846 130.533 47.6634 121.521 46.7358L120.907 52.7042C128.215 53.4566 136.934 59.0554 136.934 68.92H142.934ZM121.733 52.6748C131.43 50.9713 141.734 43.5651 141.734 31.48H135.734C135.734 39.5549 128.758 45.3487 120.695 46.7652L121.733 52.6748ZM141.734 31.48C141.734 23.8413 138.379 17.5121 132.389 13.1919C126.5 8.94409 118.256 6.75999 108.494 6.75999V12.76C117.452 12.76 124.328 14.7759 128.879 18.0581C133.329 21.2679 135.734 25.7987 135.734 31.48H141.734ZM108.494 6.75999C93.6129 6.75999 82.7089 12.515 75.6478 20.4915L80.1404 24.4685C86.0392 17.805 95.2953 12.76 108.494 12.76V6.75999ZM75.5489 24.3509L84.0689 35.0309L88.7592 31.2891L80.2392 20.6091L75.5489 24.3509ZM88.4888 35.3269C93.5924 30.4405 99.8171 27.88 106.694 27.88V21.88C98.2111 21.88 90.5158 25.0795 84.3393 30.9931L88.4888 35.3269ZM106.694 27.88C110.588 27.88 113.716 28.6134 115.76 29.8189C117.67 30.9459 118.574 32.4102 118.574 34.36H124.574C124.574 29.9498 122.238 26.6741 118.808 24.6511C115.512 22.7066 111.2 21.88 106.694 21.88V27.88ZM118.574 34.36C118.574 36.0473 117.848 37.2392 116.097 38.1861C114.151 39.2382 111.04 39.88 106.814 39.88V45.88C111.468 45.88 115.737 45.2018 118.951 43.4639C122.36 41.6208 124.574 38.5526 124.574 34.36H118.574ZM106.814 39.88C103.707 39.88 98.3803 39.8768 97.1032 39.7704L96.6049 45.7496C98.2078 45.8832 103.921 45.88 106.814 45.88V39.88ZM93.8541 42.76V58.12H99.8541V42.76H93.8541ZM97.1526 61.1051C98.176 61.0028 103.42 60.88 106.814 60.88V54.88C103.488 54.88 97.9321 54.9972 96.5556 55.1349L97.1526 61.1051ZM106.814 60.88C112.258 60.88 115.619 61.6047 117.539 62.7133C118.439 63.2322 118.979 63.8108 119.318 64.4306C119.663 65.0639 119.894 65.9184 119.894 67.12H125.894C125.894 65.1415 125.51 63.2511 124.584 61.5557C123.651 59.8467 122.265 58.5128 120.539 57.5167C117.209 55.5953 112.531 54.88 106.814 54.88V60.88ZM119.894 67.12C119.894 69.1006 119.055 70.7516 117.256 72.0143C115.357 73.3465 112.25 74.32 107.774 74.32V80.32C113.018 80.32 117.471 79.1935 120.702 76.9257C124.033 74.5884 125.894 71.1394 125.894 67.12H119.894ZM107.774 74.32C100.708 74.32 92.7588 71.2361 87.86 66.1243L83.5281 70.2757C89.6693 76.6839 99.2399 80.32 107.774 80.32V74.32ZM83.3273 66.3565L74.4473 77.7565L79.1808 81.4435L88.0608 70.0435L83.3273 66.3565ZM74.4905 81.4976C81.0285 89.5034 92.8628 95.44 108.374 95.44V89.44C94.3653 89.44 84.3596 84.0966 79.1377 77.7024L74.4905 81.4976Z" fill="#FF6732"/>
</svg>
